<?xml version="1.0" encoding="utf-8"?>
<!-- Generator: Adobe Illustrator 19.1.0, SVG Export Plug-In . SVG Version: 6.00 Build 0)  -->
<!DOCTYPE svg PUBLIC "-//W3C//DTD SVG 1.1//EN" "http://www.w3.org/Graphics/SVG/1.1/DTD/svg11.dtd">
<svg version="1.1" id="Layer_1" xmlns="http://www.w3.org/2000/svg" xmlns:xlink="http://www.w3.org/1999/xlink" x="0px" y="0px"
	 width="576px" height="393.5px" viewBox="0 0 576 393.5" style="enable-background:new 0 0 576 393.5;" xml:space="preserve">
<style type="text/css">
	.st0{fill:#D5E04E;}
	.st1{fill:#00853F;}
</style>
<g id="XMLID_2_">
	<g>
		<path class="st0" d="M445.9,244.2c0.4,2.8,0.6,5.7,0.6,8.6c0,34.4-27.9,62.3-62.3,62.3c-34.4,0-62.3-27.9-62.3-62.3
			s27.9-62.3,62.3-62.3c24,0,44.8,13.6,55.2,33.5l-68.2,55.5c0,0,6.4,4.5,14.7,4.5c8.3,0,29.2-8.3,26.3-33L445.9,244.2z
			 M355.2,253.9l37.2-29.1C392.4,224.7,357.1,213.2,355.2,253.9z"/>
		<path class="st0" d="M316.1,157.8v155.1h-34v-6.7c-8.9,5.5-19.2,8.6-30.3,8.6c-33,0-59.8-27.9-59.8-62.3
			c0-34.4,26.8-62.3,59.8-62.3c11.1,0,21.4,3.1,30.3,8.6v-41H316.1z M282.3,252.6c0-16-12.8-28.9-28.6-28.9
			c-15.8,0-28.7,13-28.7,28.9s12.8,28.9,28.7,28.9C269.5,281.5,282.3,268.6,282.3,252.6z"/>
		<polygon class="st1" points="183.5,227.8 166.8,312.9 144.2,312.9 128.2,227.8 		"/>
		<path class="st1" d="M155.1,180.7c11.3,0,20.4,9.1,20.4,20.4c0,11.2-9.1,20.4-20.4,20.4c-11.2,0-20.4-9.1-20.4-20.4
			C134.7,189.8,143.9,180.7,155.1,180.7z"/>
		<path class="st0" d="M91.2,253.7l38.8,59.2H83.4L53,262.3h-1.2v50.6H13.3V155.7l42.5-0.7c0,0,66.5-3.5,66.5,50.5
			C122.2,245.3,91.2,253.7,91.2,253.7z M83.8,206.3c0-22-31.9-16-31.9-16v35C51.9,225.3,83.8,231.3,83.8,206.3z"/>
	</g>
	<g>
	</g>
</g>
<g id="XMLID_3_">
	<g>
		<polygon class="st1" points="414,331.3 414,374.6 406,374.6 387.8,346.8 388.1,373 388.1,374.6 379.2,374.6 379.2,331.3 
			387.6,331.3 405.3,358.2 405.1,331.3 		"/>
		<path class="st1" d="M372.1,352.7c0,3-0.5,5.8-1.5,8.4c-1,2.6-2.4,4.9-4.4,7c-2.2,2.4-4.8,4.2-7.6,5.4c-2.8,1.2-5.9,1.8-9.1,1.8
			c0,0,0,0,0,0c-3.3,0-6.3-0.6-9.1-1.9s-5.3-3.1-7.5-5.5c-1.9-2-3.3-4.4-4.3-7c-1-2.6-1.4-5.4-1.4-8.3c0-3,0.6-5.9,1.8-8.6
			c1.2-2.7,2.9-5.2,5.1-7.3c2.1-2,4.5-3.6,7.1-4.7c2.6-1.1,5.4-1.6,8.4-1.6c3,0,5.9,0.5,8.5,1.6c2.6,1.1,5,2.6,7.2,4.7
			c2.2,2.1,3.9,4.6,5,7.2C371.5,346.8,372.1,349.7,372.1,352.7z M363,352.7c0-1.7-0.3-3.2-0.9-4.8c-0.6-1.5-1.5-2.9-2.7-4.2
			c-1.4-1.5-2.9-2.6-4.5-3.3c-1.6-0.7-3.3-1-5.3-1c-1.7,0-3.4,0.3-4.9,1c-1.6,0.6-2.9,1.6-4.2,2.8c-1.3,1.3-2.2,2.8-3,4.5
			c-0.7,1.7-1.1,3.4-1.1,5.2c0,1.9,0.3,3.7,1,5.4c0.6,1.7,1.5,3.1,2.7,4.3c1.3,1.3,2.7,2.3,4.4,3c1.7,0.7,3.3,1.1,5,1.1
			c3.9,0,7-1.3,9.6-4C361.7,359.9,363,356.7,363,352.7z"/>
		<polygon class="st1" points="319.5,373.1 319.5,374.6 310.6,374.6 310.6,331.3 319.5,331.3 		"/>
		<polygon class="st1" points="304.6,331.4 304.6,339.8 296.9,339.8 296.9,373.1 296.9,374.6 288,374.6 288,339.8 280.3,339.8 
			280.3,331.4 		"/>
		<path class="st1" d="M277.1,361.5l-1.1,2.2c-1.9,3.7-4.6,6.7-8,8.7c-3.4,2-7.3,3-11.7,3c0,0,0,0,0,0c-3.3,0-6.3-0.6-9.1-1.9
			c-2.8-1.2-5.3-3.1-7.5-5.5c-1.9-2-3.3-4.4-4.3-7c-1-2.6-1.4-5.4-1.4-8.3c0-3,0.6-5.9,1.8-8.6c1.2-2.7,2.9-5.2,5.1-7.3
			c2.1-2,4.5-3.6,7.1-4.7c2.6-1.1,5.4-1.6,8.4-1.6c4.4,0,8.4,1,11.9,3.2c3.4,2.1,6.1,5.1,7.8,8.9l1,2.1h-10.1l-0.4-0.6
			c-1.2-1.6-2.6-2.8-4.3-3.6c-1.7-0.8-3.6-1.2-5.9-1.2c-1.7,0-3.4,0.3-4.9,1c-1.6,0.7-2.9,1.6-4.1,2.8c-1.3,1.3-2.3,2.8-3,4.5
			c-0.7,1.7-1.1,3.4-1.1,5.2c0,1.9,0.3,3.7,1,5.4c0.6,1.7,1.6,3.1,2.7,4.3c1.3,1.3,2.7,2.3,4.4,3c1.7,0.7,3.3,1.1,5,1.1
			c2.2,0,4.1-0.4,5.7-1.2c1.7-0.8,3-1.9,4.1-3.3l0.4-0.6h8.1H277.1z"/>
		<polygon class="st1" points="227,373.1 227,374.6 200.6,374.6 200.6,331.3 227,331.3 227,339.7 210.1,339.7 210.1,348.7 
			227,348.7 227,357 210.1,357 210.1,366 227,366 		"/>
		<polygon class="st1" points="192.1,331.3 192.1,374.6 184.1,374.6 165.9,346.8 166.2,373.1 166.2,374.6 157.3,374.6 157.3,331.3 
			165.7,331.3 183.5,358.2 183.2,331.3 		"/>
		<polygon class="st1" points="147.5,331.3 147.5,374.6 139.3,374.6 120.4,346.7 120.8,373 120.8,374.6 111.6,374.6 111.6,331.3 
			120.2,331.3 138.7,358.4 138.4,331.3 		"/>
		<path class="st1" d="M104.4,352.7c0,3-0.5,5.8-1.4,8.4c-1,2.6-2.4,4.9-4.4,7c-2.2,2.4-4.8,4.2-7.6,5.4c-2.8,1.2-5.9,1.8-9.1,1.8
			c0,0,0,0,0,0c-3.3,0-6.3-0.6-9.1-1.9s-5.3-3.1-7.5-5.5c-1.9-2-3.3-4.4-4.3-7c-1-2.6-1.4-5.4-1.4-8.3c0-3,0.6-5.9,1.8-8.6
			c1.2-2.7,2.9-5.2,5.1-7.3c2.1-2,4.5-3.6,7.1-4.7c2.6-1.1,5.4-1.6,8.4-1.6c3,0,5.9,0.5,8.5,1.6c2.6,1.1,5,2.6,7.2,4.7
			c2.2,2.1,3.9,4.6,5,7.2C103.8,346.8,104.4,349.7,104.4,352.7z M95.3,352.7c0-1.7-0.3-3.2-0.9-4.8c-0.6-1.5-1.5-2.9-2.7-4.2
			c-1.4-1.5-2.9-2.6-4.5-3.3c-1.6-0.7-3.3-1-5.3-1c-1.7,0-3.4,0.3-4.9,1c-1.6,0.6-2.9,1.6-4.2,2.8c-1.3,1.3-2.2,2.8-3,4.5
			c-0.7,1.7-1.1,3.4-1.1,5.2c0,1.9,0.3,3.7,1,5.4c0.6,1.7,1.5,3.1,2.7,4.3c1.3,1.3,2.7,2.3,4.4,3c1.7,0.7,3.3,1.1,5,1.1
			c3.9,0,6.9-1.3,9.6-4C94,359.9,95.3,356.7,95.3,352.7z"/>
		<path class="st1" d="M54.3,361.5l-1.1,2.2c-1.9,3.7-4.6,6.7-8,8.7c-3.4,2-7.3,3-11.7,3h0c-3.3,0-6.3-0.6-9.1-1.9
			c-2.8-1.2-5.3-3.1-7.5-5.5c-1.9-2-3.3-4.4-4.3-7c-1-2.6-1.4-5.4-1.4-8.3c0-3,0.6-5.9,1.8-8.6c1.2-2.7,2.9-5.2,5.1-7.3
			c2.1-2,4.5-3.6,7.1-4.7c2.6-1.1,5.4-1.6,8.4-1.6c4.4,0,8.4,1,11.9,3.2c3.4,2.1,6.1,5.1,7.8,8.9l1,2.1H44.1l-0.4-0.6
			c-1.2-1.6-2.6-2.8-4.3-3.6c-1.7-0.8-3.6-1.2-5.9-1.2c-1.8,0-3.4,0.3-5,1c-1.6,0.7-2.9,1.6-4.1,2.8c-1.3,1.3-2.3,2.8-3,4.5
			c-0.7,1.7-1.1,3.4-1.1,5.2c0,1.9,0.3,3.7,1,5.4c0.6,1.7,1.6,3.1,2.7,4.3c1.3,1.3,2.7,2.3,4.4,3c1.7,0.7,3.3,1.1,5,1.1
			c2.1,0,4-0.4,5.7-1.2c1.7-0.8,3-1.9,4.1-3.3l0.5-0.6h8.1H54.3z"/>
	</g>
	<g>
	</g>
</g>
<g id="XMLID_1_">
	<g>
		<path class="st0" d="M571.6,375.7H429.7l48.2-134.4l14.5,56.2c17.7-39.6,33.7-118.9-31.6-189.1c-65.3-70.2-157.5-56.8-157.5-56.8
			C208.1,63,164.3,146,161,152.5c14.4-29.8,29.4-58.7,53.1-82.3c33.8-33.8,74.1-53.8,121.9-57.1c47.8-3.2,91.9,7.9,132.8,33.7
			c14.9,9.4,28.9,22.2,40.4,35.5c43.6,50.2,59.4,114.3,49.6,179.3c-7.5,49.8-30,86.2-30,86.2L571.6,375.7z"/>
	</g>
	<g>
	</g>
</g>
</svg>
